# xmcd
#
# Track frame offsets:
#	150
#	16217
#	33050
#	48090
#	60675
#	77942
#	94705
#	106820
#	116377
#	135612
#
# Disc length: 1899 seconds
# Revision: 0
# Processed by: cddbd v1.5.2PL0 Copyright (c) Steve Scherf et al.
# Submitted via: dBpowerAMP V12.0
#
DISCID=6f07690a
DTITLE=Clint Black - Looking For Christmas
DYEAR=1995
DGENRE=Country
TTITLE0=The Finest Gift
TTITLE1=Under The Mistletoe
TTITLE2=The Kid
TTITLE3=The Coolest Pair
TTITLE4=Looking For Christmas
TTITLE5=Christmas For Every Boy And Girl
TTITLE6=Til' Santa's Gone (Milk And Cookies)
TTITLE7=Slow As Christmas
TTITLE8=The Birth Of The King
TTITLE9=Looking For Christmas (Reprise)
EXTD=
EXTT0=
EXTT1=
EXTT2=
EXTT3=
EXTT4=
EXTT5=
EXTT6=
EXTT7=
EXTT8=
EXTT9=
PLAYORDER=
